<svg xmlns="http://www.w3.org/2000/svg" viewBox="0 0 1280 720" role="img" aria-label="Cloakweave screenshot placeholder">
  <rect width="1280" height="720" fill="#0f172a"/>
  <rect x="28" y="28" width="1224" height="664" rx="18" fill="#111827" stroke="#243244"/>
  <rect x="56" y="64" width="228" height="592" rx="10" fill="#0b1220"/>
  <rect x="316" y="64" width="524" height="592" rx="10" fill="#141f2f"/>
  <rect x="872" y="64" width="352" height="592" rx="10" fill="#101827"/>
  <text x="88" y="126" fill="#f8fafc" font-family="Inter, Arial, sans-serif" font-size="32" font-weight="700">Cloakweave</text>
  <text x="88" y="176" fill="#5eead4" font-family="Inter, Arial, sans-serif" font-size="18">Privacy Mode: Local</text>
  <rect x="352" y="100" width="452" height="132" rx="10" fill="#0f172a" stroke="#334155"/>
  <text x="388" y="157" fill="#f8fafc" font-family="Inter, Arial, sans-serif" font-size="26" font-weight="700">Build a private knowledge base</text>
  <text x="388" y="198" fill="#94a3b8" font-family="Inter, Arial, sans-serif" font-size="18">Import files, index locally, retrieve cited answers.</text>
  <rect x="352" y="276" width="452" height="62" rx="8" fill="#182438"/>
  <rect x="352" y="362" width="452" height="62" rx="8" fill="#182438"/>
  <rect x="352" y="448" width="452" height="62" rx="8" fill="#182438"/>
  <text x="908" y="126" fill="#f8fafc" font-family="Inter, Arial, sans-serif" font-size="24" font-weight="700">Ask your documents</text>
  <rect x="908" y="168" width="280" height="94" rx="8" fill="#182438"/>
  <rect x="908" y="292" width="280" height="156" rx="8" fill="#0f172a" stroke="#334155"/>
  <rect x="908" y="586" width="280" height="42" rx="8" fill="#14b8a6"/>
</svg>
